<svg width="200" height="24" viewBox="0 0 200 24" fill="none" xmlns="http://www.w3.org/2000/svg">
<path d="M17.8798 11.5708L6.54899 9.04448C3.59443 8.4258 3.18814 7.69667 3.18814 7.32104V5.15566C3.16519 4.88077 3.20294 4.60419 3.29886 4.34546C3.39634 4.08411 3.54733 3.84582 3.74212 3.64575C3.89441 3.48348 4.07774 3.35328 4.28131 3.26279C4.48466 3.17486 4.70257 3.12492 4.92402 3.11548H21.669V0H4.89444C4.24577 0.0148851 3.60611 0.154949 3.01087 0.412451C1.78789 0.966043 0.829035 1.97243 0.337084 3.2186C0.088522 3.84856 -0.024858 4.52352 0.00455123 5.19985V7.31367C-0.00201809 8.18515 0.3017 9.03071 0.86149 9.7C1.34332 10.2647 1.94329 10.7172 2.61937 11.0257C3.64216 11.5171 4.72483 11.8736 5.83992 12.0863L16.3877 14.4285V14.4948L17.2445 14.6421C19.3349 15.0177 19.4604 16.1151 19.4604 16.1151V18.6708C19.4604 19.7977 18.6257 20.5195 17.333 20.5195H0.203999V23.635H17.333C18.6981 23.6712 20.0233 23.1744 21.0263 22.2503C21.5236 21.7938 21.921 21.2396 22.1934 20.6226C22.4581 20.0061 22.5914 19.3415 22.5849 18.6708V16.1372C22.5553 15.3932 22.3258 14.6707 21.9202 14.0455C21.4582 13.3737 20.8598 12.8062 20.1637 12.3799C19.4677 11.9535 18.6896 11.6779 17.8798 11.5708Z" fill="#562AFF"/>
<path d="M47.4619 5.7199e-06H33.0784C31.2721 -0.00230962 29.5361 0.698374 28.2395 1.95312C27.6054 2.56028 27.101 3.28931 26.757 4.09621C26.4129 4.90312 26.2362 5.77115 26.2375 6.64804V17.0181C26.2386 17.8943 26.4171 18.7611 26.7624 19.5666C27.1077 20.3722 27.6127 21.0998 28.2469 21.7057C29.5434 22.9532 31.2772 23.6462 33.0784 23.6368H47.4619C49.2632 23.6462 50.9969 22.9532 52.2934 21.7057C52.9277 21.0998 53.4327 20.3722 53.778 19.5666C54.1233 18.7611 54.3018 17.8943 54.3028 17.0181V6.64804C54.3042 5.77115 54.1275 4.90312 53.7834 4.09621C53.4393 3.28931 52.935 2.56028 52.3008 1.95312C51.0043 0.698374 49.2683 -0.00230962 47.4619 5.7199e-06ZM51.1557 6.63333V17.0034C51.1513 17.4672 51.0535 17.9254 50.8682 18.3508C50.6829 18.7762 50.414 19.1601 50.0772 19.4799C49.3846 20.1383 48.4629 20.5029 47.5063 20.497H33.0932C32.1366 20.5029 31.2149 20.1383 30.5223 19.4799C30.1842 19.1612 29.9143 18.7774 29.7289 18.3518C29.5436 17.9262 29.4465 17.4675 29.4438 17.0034V6.64804C29.4445 6.18215 29.5396 5.72124 29.7237 5.29309C29.9078 4.86493 30.177 4.4784 30.5149 4.15685C31.2134 3.49099 32.1419 3.11888 33.108 3.11765H47.4915C48.4576 3.11888 49.3861 3.49099 50.0846 4.15685C50.4158 4.48192 50.6785 4.86974 50.8574 5.29754C51.0363 5.72535 51.1276 6.18451 51.1261 6.64804L51.1557 6.63333Z" fill="#562AFF"/>
<path d="M61.8428 20.4527C61.7222 20.4042 61.6099 20.337 61.5102 20.2537C61.4221 20.1714 61.3495 20.0741 61.2958 19.9663C61.2502 19.8614 61.2252 19.7488 61.2219 19.6346V0H57.9026V19.6346C57.9089 20.1716 58.0263 20.7014 58.2477 21.191C58.469 21.6805 58.7896 22.1193 59.1889 22.4796C60.0202 23.2318 61.1047 23.6448 62.2273 23.6367H78.3288V20.519H62.2569C62.1162 20.5191 61.9764 20.4968 61.8428 20.4527Z" fill="#562AFF"/>
<path d="M98.974 0H80.8193V23.6369H83.9129V3.11766H98.974C99.4374 3.11863 99.896 3.21071 100.324 3.38865C100.752 3.5666 101.14 3.82692 101.467 4.15475C101.794 4.48258 102.053 4.87151 102.23 5.29931C102.406 5.72712 102.497 6.18541 102.496 6.64806V17.0035C102.498 17.4653 102.407 17.9229 102.23 18.3494C102.052 18.7759 101.791 19.1628 101.462 19.4873C101.137 19.8162 100.75 20.0765 100.323 20.2525C99.8951 20.4285 99.4364 20.5167 98.974 20.5118H86.6593V23.6295H98.974C100.736 23.6295 102.426 22.9306 103.672 21.6866C104.919 20.4426 105.619 18.7554 105.619 16.9961V6.65544C105.619 4.89617 104.919 3.20895 103.672 1.96496C102.426 0.720963 100.736 0.0220878 98.974 0.0220878V0Z" fill="#562AFF"/>
<path d="M113.258 0H110.324V23.6369H113.258V0Z" fill="#562AFF"/>
<path d="M140.313 11.717C141.013 10.8927 141.4 9.84936 141.407 8.76931V4.73839C141.41 4.11466 141.287 3.49675 141.044 2.92182C140.802 2.34688 140.445 1.82677 139.996 1.39274C139.087 0.501801 137.864 0.00179851 136.589 0H118.018V23.5814H136.885C138.158 23.5883 139.383 23.093 140.291 22.2034C140.741 21.7739 141.098 21.2578 141.342 20.6866C141.586 20.1153 141.711 19.5007 141.71 18.8799V14.9742C141.714 14.2941 141.565 13.6218 141.274 13.0066C141.031 12.5244 140.706 12.088 140.313 11.717ZM121.203 13.434H136.877C137.31 13.4308 137.727 13.5976 138.037 13.8983C138.191 14.0421 138.314 14.2155 138.4 14.408C138.485 14.6005 138.53 14.8081 138.533 15.0184V18.9241C138.531 19.1357 138.486 19.3447 138.401 19.5385C138.316 19.7323 138.192 19.9068 138.037 20.0515C137.725 20.3534 137.305 20.5202 136.87 20.5158H121.174L121.203 13.434ZM138.252 8.7251C138.251 8.93608 138.207 9.14465 138.123 9.33838C138.039 9.5321 137.917 9.70701 137.764 9.85261C137.449 10.1505 137.031 10.3166 136.596 10.3169H121.203V3.11715H136.582C137.022 3.11407 137.447 3.28339 137.764 3.58879C137.919 3.73584 138.043 3.91305 138.127 4.1095C138.21 4.30596 138.253 4.51749 138.252 4.73101V8.7251Z" fill="#562AFF"/>
<path d="M166.547 6.03768e-06H152.149C150.343 -0.00230931 148.607 0.698374 147.31 1.95312C146.676 2.56028 146.172 3.28931 145.828 4.09622C145.484 4.90312 145.307 5.77115 145.308 6.64804V17.0181C145.309 17.8943 145.488 18.7611 145.833 19.5666C146.178 20.3722 146.683 21.0998 147.318 21.7057C148.614 22.9532 150.348 23.6462 152.149 23.6368H166.533C168.334 23.6462 170.068 22.9532 171.364 21.7057C171.998 21.0998 172.503 20.3722 172.849 19.5666C173.194 18.7611 173.372 17.8943 173.373 17.0181V6.64804C173.375 5.77115 173.198 4.90312 172.854 4.09622C172.51 3.28931 172.006 2.56028 171.371 1.95312C170.081 0.698602 168.349 -0.00237335 166.547 6.03768e-06ZM170.204 6.63333V17.0034C170.201 17.4675 170.104 17.9262 169.919 18.3518C169.734 18.7774 169.464 19.1612 169.126 19.4799C168.43 20.1337 167.51 20.4976 166.555 20.497H152.134C151.179 20.4976 150.259 20.1337 149.563 19.4799C149.225 19.1612 148.955 18.7774 148.77 18.3518C148.585 17.9262 148.488 17.4675 148.485 17.0034V6.64804C148.486 6.18215 148.581 5.72124 148.765 5.29309C148.949 4.86493 149.218 4.4784 149.556 4.15686C150.251 3.48504 151.182 3.11192 152.149 3.11765H166.54C167.021 3.11976 167.497 3.21227 167.944 3.39035C168.384 3.55813 168.787 3.80831 169.133 4.12739C169.471 4.45147 169.739 4.83997 169.924 5.26979C170.112 5.70471 170.208 6.17414 170.204 6.64804V6.63333Z" fill="#562AFF"/>
<path d="M200 0H195.802L187.687 9.47096L179.579 0H175.477L185.636 11.859L175.536 23.6369H179.697L187.724 14.2765L195.773 23.6369H199.882L189.775 11.8958L200 0Z" fill="#562AFF"/>
</svg>
