<svg width="50" height="50" viewBox="0 0 50 50" fill="none" xmlns="http://www.w3.org/2000/svg">
<path d="M48.5 16.7857C48.5 25.2278 41.6563 32.0714 33.2143 32.0714C24.7722 32.0714 17.9286 25.2278 17.9286 16.7857C17.9286 8.34365 24.7722 1.5 33.2143 1.5C41.6563 1.5 48.5 8.34365 48.5 16.7857Z" stroke="#562AFF" stroke-width="3"/>
<path d="M32.0714 33.2143C32.0714 41.6564 25.2278 48.5 16.7857 48.5C8.34365 48.5 1.5 41.6564 1.5 33.2143C1.5 24.7722 8.34365 17.9286 16.7857 17.9286C25.2278 17.9286 32.0714 24.7722 32.0714 33.2143Z" stroke="#562AFF" stroke-width="3"/>
<path d="M16.4286 33.5714H33.5714V16.4286L16.4286 16.4286L16.4286 33.5714Z" fill="black"/>
<path d="M24.6428 30C27.6015 30 30 27.6015 30 24.6428C30 21.6842 27.6015 19.2857 24.6428 19.2857C21.6842 19.2857 19.2857 21.6842 19.2857 24.6428C19.2857 27.6015 21.6842 30 24.6428 30Z" fill="#562AFF"/>
</svg>
